                        ETC1337 Presents  "The Lottery" [TV]

                                1996 .H264 DvdRip



Format                           : AVI
Format/Info                      : Audio Video Interleave
File size                        : 951 MiB
Duration                         : 1h 31mn
Overall bit rate                 : 1 452 Kbps
Movie name                       : THE_LOTTERY.Title2.DVDRip
Writing application              : Lavf52.78.4
Original source form/Name        : THE_LOTTERY

Video
ID                               : 0
Format                           : AVC
Format/Info                      : Advanced Video Codec
Format profile                   : Main@L3.0
Format settings, CABAC           : Yes
Format settings, ReFrames        : 2 frames
Codec ID                         : H264
Duration                         : 1h 31mn
Bit rate                         : 1 375 Kbps
Width                            : 640 pixels
Height                           : 480 pixels
Display aspect ratio             : 4:3
Frame rate                       : 29.970 fps
Color space                      : YUV
Chroma subsampling               : 4:2:0
Bit depth                        : 8 bits
Scan type                        : Progressive
Bits/(Pixel*Frame)               : 0.149
Stream size                      : 900 MiB (95%)
Writing library                  : x264 core
Color primaries                  : BT.601-6 525, BT.1358 525, BT.1700 NTSC, SMPTE 170M
Transfer characteristics         : BT.709-5, BT.1361
Matrix coefficients              : BT.601-6 525, BT.1358 525, BT.1700 NTSC, SMPTE 170M

Audio
ID                               : 1
Format                           : MPEG Audio
Format version                   : Version 1
Format profile                   : Layer 3
Mode                             : Joint stereo
Mode extension                   : MS Stereo
Codec ID                         : 55
Codec ID/Hint                    : MP3
Duration                         : 1h 31mn
Bit rate mode                    : Constant
Bit rate                         : 64.0 Kbps
Channel(s)                       : 2 channels
Sampling rate                    : 48.0 KHz
Compression mode                 : Lossy
Stream size                      : 41.9 MiB (4%)
Alignment                        : Aligned on interleaves
Interleave, duration             : 24 ms (0.72 video frame)
Interleave, preload duration     : 24 ms








Have A Request? Ask me here:                 
http://forum.suprbay.org/member.php?action=register&referrer=118982



Please, SEED, COMMENT, And ENJOY

ETC1337	

		 
 
